<?xml version="1.0" encoding="iso-8859-1"?>
<!-- Generator: Adobe Illustrator 19.0.0, SVG Export Plug-In . SVG Version: 6.00 Build 0)  -->
<svg version="1.1" id="Layer_1" xmlns="http://www.w3.org/2000/svg" xmlns:xlink="http://www.w3.org/1999/xlink" x="0px" y="0px"
	 viewBox="0 0 512 512" style="enable-background:new 0 0 512 512;" xml:space="preserve">
<g>
	<g>
		<path d="M504.533,379.733h-9.6v-282.7c0-18.8-14.242-33.033-33.062-33.033H52.262c-18.821,0-35.196,14.233-35.196,33.033v282.7
			H9.6c-4.713,0-9.6,2.75-9.6,7.467v25.6C0,431.625,16.362,448,35.167,448h443.8C497.771,448,512,431.625,512,412.8v-25.6
			C512,382.483,509.246,379.733,504.533,379.733z M34.133,97.033c0-9.392,8.721-15.967,18.129-15.967h409.609
			c9.408,0,15.996,6.575,15.996,15.967v282.7h-144c-4.713,0-9.6,2.75-9.6,7.467v9.6h-128v-9.6c0-4.717-2.754-7.467-7.467-7.467
			H34.133V97.033z M494.933,412.8c0,9.408-6.575,18.133-15.967,18.133h-443.8c-9.392,0-18.1-8.725-18.1-18.133v-16H179.2v7.467
			c0,4.717,4.887,9.6,9.6,9.6h145.067c4.713,0,7.467-4.883,7.467-9.6V396.8h153.6V412.8z"/>
	</g>
</g>
<g>
	<g>
		<path d="M453.333,98.133H60.8c-4.713,0-9.6,2.75-9.6,7.467v247.467c0,4.717,4.887,9.6,9.6,9.6h392.533
			c4.713,0,7.467-4.883,7.467-9.6V105.6C460.8,100.883,458.046,98.133,453.333,98.133z M443.733,345.6H68.267V115.2h375.467V345.6z"
			/>
	</g>
</g>
<g>
	<g>
		<path d="M393.6,285.867h-240v-51.2h26.667c3.371,0,6.429-2.517,7.796-5.6l27.071-61.175l51.488,95.483
			c1.492,2.775,4.383,4.425,7.513,4.425c0.108,0,0.217-0.034,0.325-0.042c3.25-0.125,6.15-2.1,7.471-5.075l26.196-58.942
			l17.9,42.288c1.342,3.142,4.429,5.704,7.842,5.704H393.6c4.713,0,8.533-3.817,8.533-8.533c0-4.717-3.821-8.533-8.533-8.533
			h-54.108l-23.383-55.092c-1.333-3.125-4.392-5.417-7.784-5.442c-3.7,0.142-6.479,1.825-7.854,4.933L273.4,239.908l-51.487-95.65
			c-1.542-2.867-4.596-4.775-7.837-4.5c-3.25,0.125-6.15,2.608-7.471,5.583L174.721,217.6H153.6v-77.867
			c0-4.717-3.821-8.533-8.533-8.533c-4.713,0-8.533,3.817-8.533,8.533v146.133h-16c-4.713,0-8.533,3.817-8.533,8.533
			c0,4.717,3.821,8.533,8.533,8.533h16v16.2c0,4.717,3.821,8.533,8.533,8.533c4.713,0,8.533-3.817,8.533-8.533v-16.2h240
			c4.713,0,8.533-3.817,8.533-8.533C402.133,289.683,398.313,285.867,393.6,285.867z"/>
	</g>
</g>
<g>
</g>
<g>
</g>
<g>
</g>
<g>
</g>
<g>
</g>
<g>
</g>
<g>
</g>
<g>
</g>
<g>
</g>
<g>
</g>
<g>
</g>
<g>
</g>
<g>
</g>
<g>
</g>
<g>
</g>
</svg>
